<?xml version="1.0" encoding="utf-8"?>
<!-- Generator: Adobe Illustrator 23.0.1, SVG Export Plug-In . SVG Version: 6.00 Build 0)  -->
<svg version="1.1" id="Calque_1" xmlns="http://www.w3.org/2000/svg" xmlns:xlink="http://www.w3.org/1999/xlink" x="0px" y="0px"
	 viewBox="0 0 229.1 186.7" style="enable-background:new 0 0 229.1 186.7;" xml:space="preserve">
<style type="text/css">
	.st0{fill:#FFFFFF;}
	.st1{fill:#F1F1F1;}
	.st2{fill:#F8F7F7;}
	.st3{fill:none;}
	.st4{fill:#17539F;}
	.st5{fill:#6ABD9E;}
</style>
<g>
	<polygon class="st0" points="0,145.3 141.2,0.3 229.1,186.7 	"/>
</g>
<polygon class="st1" points="141.3,0 131.4,128.6 229.1,186.7 "/>
<polygon class="st0" points="229.1,186.7 131.4,128.6 0,145.3 "/>
<polygon class="st2" points="141.3,0 131.4,128.6 0,145.3 "/>
<g>
	<path class="st3" d="M110.5,127.6c0-3.5-0.6-4-5-4c-2.3,0-3.4,0.2-4,0.8c-0.5,0.5-0.7,1.4-0.8,3.3H110.5z"/>
	<path class="st3" d="M155.9,123.5c-2.4,0-3.4,0.3-4,1c-0.7,0.9-0.9,2.8-0.9,5.4c0,2.9,0.1,4.8,0.8,5.7c0.6,0.7,1.6,1,4,1
		c4.6,0,5.5-0.5,5.5-6.7c0-2.9-0.3-4.5-1.1-5.3C159.6,123.9,158.4,123.5,155.9,123.5z"/>
	<path class="st3" d="M131,123.6c-2.5,0-3.8,0.3-4.4,1.1c-0.7,0.8-1,2.4-1,5.4c0,3.1,0.3,4.6,1,5.4c0.7,0.8,1.9,1.1,4.4,1.1
		c2.5,0,3.8-0.3,4.4-1.1c0.7-0.8,1-2.4,1-5.4c0-3.1-0.3-4.6-1-5.4C134.7,123.9,133.5,123.6,131,123.6z"/>
	<path class="st3" d="M181.3,123.6c-2.5,0-3.8,0.3-4.4,1.1c-0.7,0.8-1,2.4-1,5.4c0,3.1,0.3,4.6,1,5.4c0.7,0.8,1.9,1.1,4.4,1.1
		c2.5,0,3.8-0.3,4.4-1.1c0.7-0.8,1-2.4,1-5.4c0-3.1-0.3-4.6-1-5.4C185.1,123.9,183.8,123.6,181.3,123.6z"/>
	<polygon class="st4" points="44,116.2 51.9,116.2 51.9,140.9 58,140.9 58,116.2 65.9,116.2 65.9,111.1 44,111.1 	"/>
	<path class="st4" d="M82.1,118.7c-2.5,0-4.8,0.1-6.4,1.3v-8.9h-5.9v29.9h5.9v-12.4c0-3.9,1-4.8,4.9-4.8c4.4,0,4.8,0.9,4.8,4.6v12.6
		h5.9v-14c0-3.2-0.6-5.1-1.9-6.3C88,119.3,85.8,118.7,82.1,118.7z"/>
	<path class="st4" d="M110.5,134.2c0,1.8,0,2.4-4.9,2.4c-2.1,0-3.3-0.2-3.9-0.9c-0.6-0.6-0.9-1.9-0.9-3.7h15.6l0-0.4
		c0-0.3,0-0.5,0-0.8c0-0.5,0.1-1,0.1-1.5c0-3.7-0.4-6.6-2.1-8.3c-1.6-1.6-4.1-2.3-8.7-2.3c-4.1,0-7.2,0.4-9,2.3
		c-1.8,1.9-2.1,5-2.1,9.1c0,9.2,2.2,11.4,11.2,11.4c4.4,0,6.9-0.5,8.5-1.7c1.9-1.4,2.1-3.4,2.1-5.6H110.5z M105.6,123.5
		c4.4,0,4.9,0.5,5,4h-9.7c0-1.8,0.3-2.8,0.8-3.3C102.2,123.8,103.3,123.5,105.6,123.5z"/>
	<path class="st4" d="M131,118.7c-4.7,0-7.3,0.7-9,2.3c-1.7,1.7-2.4,4.3-2.4,9.1c0,4.8,0.7,7.4,2.4,9.1c1.7,1.7,4.3,2.3,9,2.3
		c4.7,0,7.3-0.7,9-2.3c1.7-1.7,2.4-4.3,2.4-9.1c0-4.8-0.7-7.4-2.4-9.1C138.3,119.4,135.7,118.7,131,118.7z M135.4,135.5
		c-0.7,0.8-1.9,1.1-4.4,1.1c-2.5,0-3.8-0.3-4.4-1.1c-0.7-0.8-1-2.4-1-5.4c0-3.1,0.3-4.6,1-5.4c0.7-0.8,1.9-1.1,4.4-1.1
		c2.5,0,3.8,0.3,4.4,1.1c0.7,0.8,1,2.4,1,5.4C136.4,133.2,136.1,134.7,135.4,135.5z"/>
	<path class="st5" d="M161.6,120c-1.5-1.2-3.8-1.3-6.6-1.3c-7.8,0-10,2.5-10,11.3c0,4.1,0.4,7.3,2.2,9.2c1.6,1.7,4.1,2.4,8.8,2.4
		c4.9,0,7.6-0.7,9.3-2.5c1.9-2,2.3-5.1,2.3-9.1v-18.9h-5.8V120z M155.9,136.7c-2.4,0-3.5-0.3-4-1c-0.7-0.9-0.8-2.9-0.8-5.7
		c0-2.6,0.1-4.5,0.9-5.4c0.6-0.8,1.7-1,4-1c2.5,0,3.7,0.3,4.5,1.1c0.8,0.8,1.1,2.4,1.1,5.3C161.4,136.1,160.5,136.7,155.9,136.7z"/>
	<path class="st5" d="M190.3,121c-1.7-1.7-4.3-2.3-9-2.3c-4.7,0-7.3,0.7-9,2.3c-1.7,1.7-2.4,4.3-2.4,9.1c0,4.8,0.7,7.4,2.4,9.1
		c1.7,1.7,4.3,2.3,9,2.3c4.7,0,7.3-0.7,9-2.3c1.7-1.7,2.4-4.3,2.4-9.1C192.7,125.4,192,122.7,190.3,121z M185.7,135.5
		c-0.7,0.8-1.9,1.1-4.4,1.1c-2.5,0-3.8-0.3-4.4-1.1c-0.7-0.8-1-2.4-1-5.4c0-3.1,0.3-4.6,1-5.4c0.7-0.8,1.9-1.1,4.4-1.1
		c2.5,0,3.8,0.3,4.4,1.1c0.7,0.8,1,2.4,1,5.4C186.7,133.2,186.4,134.7,185.7,135.5z"/>
</g>
</svg>
